#N canvas 596 151 627 478 10;
#X obj 336 271 soundfiler;
#X floatatom 336 307 15 0 0 0 - - -;
#N canvas 0 22 450 278 (subpatch) 0;
#X array \$0-snd 423361 float 2;
#X coords 0 1 423361 -1 200 80 2 0 0;
#X restore 339 51 graph;
#X obj 334 244 sprintf read -resize %s.wav \$0-snd;
#X obj 57 23 inlet;
#X obj 60 349 tabplay~ \$0-snd;
#X obj 58 409 output~;
#X obj 59 237 int;
#X obj 58 260 t f f;
#X obj 59 316 pack;
#X floatatom 99 146 10 0 0 0 - - -;
#X floatatom 189 143 10 0 0 0 - - -;
#X text 116 127 start position + length;
#X obj 57 148 bng 15 250 50 0 empty empty empty 17 7 0 10 -262144 -1
-1;
#X obj 87 291 +;
#X obj 153 185 / 1000;
#X obj 152 208 * 44100;
#X obj 86 188 / 1000;
#X obj 87 210 * 44100;
#X obj 206 83 loadbang;
#X msg 205 109 700;
#X obj 189 41 r ss1212.length;
#X obj 100 19 r ss1212.random;
#X obj 100 52 bng 15 250 50 0 empty empty empty 17 7 0 10 -262144 -1
-1;
#X obj 99 108 random 44100;
#X obj 125 53 r \$0-init;
#X obj 335 389 s \$0-init;
#X obj 336 349 -;
#X obj 123 77 t b f;
#X obj 334 184 inlet;
#X connect 0 0 1 0;
#X connect 1 0 27 0;
#X connect 3 0 0 0;
#X connect 4 0 13 0;
#X connect 5 0 6 0;
#X connect 7 0 8 0;
#X connect 8 0 9 0;
#X connect 8 1 14 0;
#X connect 9 0 5 0;
#X connect 10 0 17 0;
#X connect 11 0 15 0;
#X connect 11 0 27 1;
#X connect 13 0 7 0;
#X connect 14 0 9 1;
#X connect 15 0 16 0;
#X connect 16 0 14 1;
#X connect 17 0 18 0;
#X connect 18 0 7 1;
#X connect 19 0 20 0;
#X connect 20 0 11 0;
#X connect 21 0 11 0;
#X connect 22 0 23 0;
#X connect 23 0 24 0;
#X connect 24 0 10 0;
#X connect 25 0 28 0;
#X connect 27 0 26 0;
#X connect 28 0 24 0;
#X connect 28 1 24 1;
#X connect 29 0 3 0;
