#N canvas 69 145 713 538 10;
#X obj 17 144 counter 11;
#X floatatom 17 171 5 0 0 0 - - -;
#X obj 20 88 tgl 15 0 empty empty empty 17 7 0 10 -262144 -1 -1 0 1
;
#X obj 18 118 metro 250;
#X obj 17 193 s ss12.seqnum;
#X obj 25 409 catch~ ss12.output;
#X obj 25 438 output~;
#X obj 22 280 s ss12.random;
#X obj 21 256 bng 15 250 50 0 empty empty position_random 17 7 0 10
-262144 -1 -1;
#X obj 25 345 s ss12.length;
#X floatatom 24 320 5 0 0 1 length(ms) - -;
#X obj 20 13 cnv 15 220 30 empty empty Sample_Sequenser_12*12 20 12
0 14 -13381 -4034 0;
#X text 35 43 Created by Tatsuya Ogusu [http://ogsn.org];
#X floatatom 43 86 5 0 0 1 interval(ms) - -;
#X obj 167 83 p/seq12;
#X obj 167 116 p/seq12 1;
#X obj 167 149 p/seq12 2;
#X obj 167 182 p/seq12 3;
#X obj 167 215 p/seq12 4;
#X obj 167 248 p/seq12 5;
#X obj 167 281 p/seq12 6;
#X obj 167 314 p/seq12 7;
#X obj 167 347 p/seq12 8;
#X obj 167 380 p/seq12 9;
#X obj 167 413 p/seq12 10;
#X obj 167 446 p/seq12 11;
#X connect 0 0 1 0;
#X connect 1 0 4 0;
#X connect 2 0 3 0;
#X connect 3 0 0 0;
#X connect 5 0 6 0;
#X connect 5 0 6 1;
#X connect 8 0 7 0;
#X connect 10 0 9 0;
#X connect 13 0 3 1;
