#N canvas 12 22 1236 681 10;
#X obj 100 322 tabwrite \$0-seq;
#X obj 101 100 tgl 30 0 empty empty empty 17 7 0 10 -13381 -4034 -1
0 1;
#X msg 100 224 \$1 0;
#X obj 134 100 tgl 30 0 empty empty empty 17 7 0 10 -13381 -4034 -1
0 1;
#X obj 167 100 tgl 30 0 empty empty empty 17 7 0 10 -13381 -4034 -1
0 1;
#X obj 200 100 tgl 30 0 empty empty empty 17 7 0 10 -13381 -4034 -1
0 1;
#X obj 233 100 tgl 30 0 empty empty empty 17 7 0 10 -13381 -4034 -1
0 1;
#X obj 266 100 tgl 30 0 empty empty empty 17 7 0 10 -13381 -4034 -1
0 1;
#X obj 299 100 tgl 30 0 empty empty empty 17 7 0 10 -13381 -4034 -1
0 1;
#X obj 332 100 tgl 30 0 empty empty empty 17 7 0 10 -13381 -4034 -1
0 1;
#X obj 365 100 tgl 30 0 empty empty empty 17 7 0 10 -13381 -4034 -1
0 1;
#X obj 398 100 tgl 30 0 empty empty empty 17 7 0 10 -13381 -4034 -1
0 1;
#X obj 431 100 tgl 30 0 empty empty empty 17 7 0 10 -13381 -4034 -1
0 1;
#X obj 464 100 tgl 30 0 empty empty empty 17 7 0 10 -13381 -4034 -1
0 1;
#X msg 133 224 \$1 1;
#X msg 166 224 \$1 2;
#X msg 199 224 \$1 3;
#X msg 232 224 \$1 4;
#X msg 265 224 \$1 5;
#X msg 298 224 \$1 6;
#X msg 331 224 \$1 7;
#X msg 364 224 \$1 8;
#X msg 430 224 \$1 10;
#X msg 397 224 \$1 9;
#X msg 463 224 \$1 11;
#X obj 614 145 tabread \$0-seq;
#X floatatom 614 117 5 0 11 0 - - -;
#X floatatom 614 175 5 0 0 0 - - -;
#X obj 614 205 sel 1;
#X obj 614 242 bng 15 250 50 0 empty empty empty 17 7 0 10 -262144
-1 -1;
#X obj 962 286 print id;
#X obj 921 245 int \$1;
#X floatatom 921 279 5 0 0 0 - - -;
#X obj 923 214 loadbang;
#X obj 98 360 table \$0-seq;
#X obj 922 340 soundfiler;
#X floatatom 922 376 15 0 0 0 - - -;
#N canvas 0 22 450 278 (subpatch) 0;
#X array \$0-snd 423361 float 2;
#X coords 0 1 423361 -1 80 30 2 0 0;
#X restore 500 100 graph;
#X obj 662 545 tabplay~ \$0-snd;
#X obj 661 512 pack;
#X floatatom 701 342 10 0 0 0 - - -;
#X floatatom 791 340 10 0 0 0 - - -;
#X obj 754 404 * 44100;
#X obj 808 279 loadbang;
#X msg 807 305 700;
#X obj 702 248 bng 15 250 50 0 empty empty empty 17 7 0 10 -262144
-1 -1;
#X obj 701 304 random 44100;
#X obj 727 249 r \$0-init;
#X obj 921 458 s \$0-init;
#X obj 922 428 -;
#X obj 725 273 t b f;
#X obj 614 91 r ss12.seqnum;
#X obj 663 589 throw~ ss12.output;
#X obj 661 433 float;
#X obj 897 343 bng 15 250 50 0 empty empty empty 17 7 0 10 -262144
-1 -1;
#X obj 754 376 / 1000;
#X text 706 187 start position + length (ms);
#X obj 689 487 int;
#X obj 660 456 t f b;
#X obj 702 215 r ss12.random;
#X obj 791 237 r ss12.length;
#X obj 922 309 sprintf read -resize ../sounds/%s.wav \$0-snd;
#X connect 1 0 2 0;
#X connect 2 0 0 0;
#X connect 3 0 14 0;
#X connect 4 0 15 0;
#X connect 5 0 16 0;
#X connect 6 0 17 0;
#X connect 7 0 18 0;
#X connect 8 0 19 0;
#X connect 9 0 20 0;
#X connect 10 0 21 0;
#X connect 11 0 23 0;
#X connect 12 0 22 0;
#X connect 13 0 24 0;
#X connect 14 0 0 0;
#X connect 15 0 0 0;
#X connect 16 0 0 0;
#X connect 17 0 0 0;
#X connect 18 0 0 0;
#X connect 19 0 0 0;
#X connect 20 0 0 0;
#X connect 21 0 0 0;
#X connect 22 0 0 0;
#X connect 23 0 0 0;
#X connect 24 0 0 0;
#X connect 25 0 27 0;
#X connect 26 0 25 0;
#X connect 27 0 28 0;
#X connect 28 0 29 0;
#X connect 29 0 53 0;
#X connect 31 0 32 0;
#X connect 31 0 30 0;
#X connect 32 0 61 0;
#X connect 33 0 31 0;
#X connect 35 0 36 0;
#X connect 36 0 49 0;
#X connect 38 0 52 0;
#X connect 39 0 38 0;
#X connect 40 0 53 1;
#X connect 41 0 49 1;
#X connect 41 0 55 0;
#X connect 42 0 57 1;
#X connect 43 0 44 0;
#X connect 44 0 41 0;
#X connect 45 0 46 0;
#X connect 46 0 40 0;
#X connect 47 0 50 0;
#X connect 49 0 48 0;
#X connect 50 0 46 0;
#X connect 50 1 46 1;
#X connect 51 0 26 0;
#X connect 53 0 58 0;
#X connect 54 0 36 0;
#X connect 55 0 42 0;
#X connect 57 0 39 1;
#X connect 58 0 39 0;
#X connect 58 1 57 0;
#X connect 59 0 45 0;
#X connect 60 0 41 0;
#X connect 61 0 35 0;
#X coords 0 -1 1 1 480 30 2 100 100;
